<?xml version="1.0" encoding="utf-8" standalone="no"?>
<!DOCTYPE svg PUBLIC "-//W3C//DTD SVG 1.1//EN"
  "http://www.w3.org/Graphics/SVG/1.1/DTD/svg11.dtd">
<svg xmlns:xlink="http://www.w3.org/1999/xlink" width="506.88pt" height="506.88pt" viewBox="0 0 506.88 506.88" xmlns="http://www.w3.org/2000/svg" version="1.1">
 <metadata>
  <rdf:RDF xmlns:dc="http://purl.org/dc/elements/1.1/" xmlns:cc="http://creativecommons.org/ns#" xmlns:rdf="http://www.w3.org/1999/02/22-rdf-syntax-ns#">
   <cc:Work>
    <dc:type rdf:resource="http://purl.org/dc/dcmitype/StillImage"/>
    <dc:date>2026-04-25T19:58:23.896277</dc:date>
    <dc:format>image/svg+xml</dc:format>
    <dc:creator>
     <cc:Agent>
      <dc:title>Matplotlib v3.10.8, https://matplotlib.org/</dc:title>
     </cc:Agent>
    </dc:creator>
   </cc:Work>
  </rdf:RDF>
 </metadata>
 <defs>
  <style type="text/css">*{stroke-linejoin: round; stroke-linecap: butt}</style>
 </defs>
 <g id="figure_1">
  <g id="patch_1">
   <path d="M 0 506.88 
L 506.88 506.88 
L 506.88 0 
L 0 0 
L 0 506.88 
z
" style="fill: none"/>
  </g>
  <g id="axes_1">
   <g id="patch_2">
    <path d="M 342.68489 53.861285 
Q 263.218223 117.147057 236.393552 179.401725 
" clip-path="url(#pa5d9ebb126)" style="fill: none; opacity: 0.26; stroke: #e39a5f; stroke-width: 2.6; stroke-linecap: round"/>
   </g>
   <g id="patch_3">
    <path d="M 342.68489 53.861285 
Q 242.670239 96.332479 178.170799 154.200779 
" clip-path="url(#pa5d9ebb126)" style="fill: none; opacity: 0.26; stroke: #e39a5f; stroke-width: 1.7; stroke-linecap: round"/>
   </g>
   <g id="patch_4">
    <path d="M 342.68489 53.861285 
Q 304.022256 112.74774 315.663809 136.681375 
" clip-path="url(#pa5d9ebb126)" style="fill: none; opacity: 0.26; stroke: #e39a5f; stroke-width: 1.7; stroke-linecap: round"/>
   </g>
   <g id="patch_5">
    <path d="M 342.68489 53.861285 
Q 227.725605 162.557987 200.492687 300.91064 
" clip-path="url(#pa5d9ebb126)" style="fill: none; opacity: 0.26; stroke: #e39a5f; stroke-width: 1.7; stroke-linecap: round"/>
   </g>
   <g id="patch_6">
    <path d="M 342.68489 53.861285 
Q 310.070033 157.651489 363.620275 222.754836 
" clip-path="url(#pa5d9ebb126)" style="fill: none; opacity: 0.26; stroke: #e39a5f; stroke-width: 1.7; stroke-linecap: round"/>
   </g>
   <g id="patch_7">
    <path d="M 342.68489 53.861285 
Q 269.207652 143.074606 269.149521 227.032234 
" clip-path="url(#pa5d9ebb126)" style="fill: none; opacity: 0.26; stroke: #e39a5f; stroke-width: 4.4; stroke-linecap: round"/>
   </g>
   <g id="patch_8">
    <path d="M 342.68489 53.861285 
Q 238.608244 122.222166 190.508391 210.079789 
" clip-path="url(#pa5d9ebb126)" style="fill: none; opacity: 0.26; stroke: #e39a5f; stroke-width: 1.7; stroke-linecap: round"/>
   </g>
   <g id="patch_9">
    <path d="M 342.68489 53.861285 
Q 292.71427 176.171974 343.135834 274.697012 
" clip-path="url(#pa5d9ebb126)" style="fill: none; opacity: 0.26; stroke: #e39a5f; stroke-width: 1.7; stroke-linecap: round"/>
   </g>
   <g id="patch_10">
    <path d="M 52.908553 196.318923 
Q 167.772265 280.928889 286.561197 283.501244 
" clip-path="url(#pa5d9ebb126)" style="fill: none; opacity: 0.26; stroke: #254eff; stroke-width: 3.5; stroke-linecap: round"/>
   </g>
   <g id="patch_11">
    <path d="M 52.908553 196.318923 
Q 163.786597 227.980329 236.393552 179.401725 
" clip-path="url(#pa5d9ebb126)" style="fill: none; opacity: 0.26; stroke: #254eff; stroke-width: 3.5; stroke-linecap: round"/>
   </g>
   <g id="patch_12">
    <path d="M 52.908553 196.318923 
Q 143.238614 207.165751 178.170799 154.200779 
" clip-path="url(#pa5d9ebb126)" style="fill: none; opacity: 0.26; stroke: #254eff; stroke-width: 3.5; stroke-linecap: round"/>
   </g>
   <g id="patch_13">
    <path d="M 52.908553 196.318923 
Q 139.176619 233.055439 190.508391 210.079789 
" clip-path="url(#pa5d9ebb126)" style="fill: none; opacity: 0.26; stroke: #254eff; stroke-width: 5.3; stroke-linecap: round"/>
   </g>
   <g id="patch_14">
    <path d="M 52.908553 196.318923 
Q 119.749043 249.290899 164.005369 259.103048 
" clip-path="url(#pa5d9ebb126)" style="fill: none; opacity: 0.26; stroke: #254eff; stroke-width: 2.6; stroke-linecap: round"/>
   </g>
   <g id="patch_15">
    <path d="M 52.908553 196.318923 
Q 169.776027 253.907878 269.149521 227.032234 
" clip-path="url(#pa5d9ebb126)" style="fill: none; opacity: 0.26; stroke: #254eff; stroke-width: 2.6; stroke-linecap: round"/>
   </g>
   <g id="patch_16">
    <path d="M 92.626265 373.96069 
Q 174.756501 341.996263 200.492687 300.91064 
" clip-path="url(#pa5d9ebb126)" style="fill: none; opacity: 0.26; stroke: #7b93b8; stroke-width: 2.6; stroke-linecap: round"/>
   </g>
   <g id="patch_17">
    <path d="M 92.626265 373.96069 
Q 154.039353 356.475212 169.977836 347.439112 
" clip-path="url(#pa5d9ebb126)" style="fill: none; opacity: 0.26; stroke: #7b93b8; stroke-width: 5.3; stroke-linecap: round"/>
   </g>
   <g id="patch_18">
    <path d="M 92.626265 373.96069 
Q 216.238548 322.512882 269.149521 227.032234 
" clip-path="url(#pa5d9ebb126)" style="fill: none; opacity: 0.26; stroke: #7b93b8; stroke-width: 2.6; stroke-linecap: round"/>
   </g>
   <g id="patch_19">
    <path d="M 92.626265 373.96069 
Q 166.211565 317.895902 164.005369 259.103048 
" clip-path="url(#pa5d9ebb126)" style="fill: none; opacity: 0.26; stroke: #7b93b8; stroke-width: 1.7; stroke-linecap: round"/>
   </g>
   <g id="patch_20">
    <path d="M 92.626265 373.96069 
Q 185.63914 301.660442 190.508391 210.079789 
" clip-path="url(#pa5d9ebb126)" style="fill: none; opacity: 0.26; stroke: #7b93b8; stroke-width: 1.7; stroke-linecap: round"/>
   </g>
   <g id="patch_21">
    <path d="M 52.908553 196.318923 
Q 111.675261 225.021781 128.339612 216.562907 
" clip-path="url(#pa5d9ebb126)" style="fill: none; opacity: 0.26; stroke: #254eff; stroke-width: 1.7; stroke-linecap: round"/>
   </g>
   <g id="patch_22">
    <path d="M 453.971447 196.318923 
Q 363.734375 217.40342 343.135834 274.697012 
" clip-path="url(#pa5d9ebb126)" style="fill: none; opacity: 0.26; stroke: #254eff; stroke-width: 1.7; stroke-linecap: round"/>
   </g>
   <g id="patch_23">
    <path d="M 453.971447 196.318923 
Q 309.628349 163.453612 190.508391 210.079789 
" clip-path="url(#pa5d9ebb126)" style="fill: none; opacity: 0.26; stroke: #254eff; stroke-width: 1.7; stroke-linecap: round"/>
   </g>
   <g id="patch_24">
    <path d="M 453.971447 196.318923 
Q 338.223995 211.327063 286.561197 283.501244 
" clip-path="url(#pa5d9ebb126)" style="fill: none; opacity: 0.26; stroke: #254eff; stroke-width: 2.6; stroke-linecap: round"/>
   </g>
   <g id="patch_25">
    <path d="M 253.44 453.018715 
Q 321.256452 361.301745 343.135834 274.697012 
" clip-path="url(#pa5d9ebb126)" style="fill: none; opacity: 0.26; stroke: #c96a2e; stroke-width: 1.7; stroke-linecap: round"/>
   </g>
   <g id="patch_26">
    <path d="M 253.44 453.018715 
Q 291.760404 302.276827 236.393552 179.401725 
" clip-path="url(#pa5d9ebb126)" style="fill: none; opacity: 0.26; stroke: #c96a2e; stroke-width: 1.7; stroke-linecap: round"/>
   </g>
   <g id="patch_27">
    <path d="M 253.44 453.018715 
Q 247.72285 323.587397 164.005369 259.103048 
" clip-path="url(#pa5d9ebb126)" style="fill: none; opacity: 0.26; stroke: #c96a2e; stroke-width: 1.7; stroke-linecap: round"/>
   </g>
   <g id="patch_28">
    <path d="M 52.908553 196.318923 
Q 128.29398 273.391259 200.492687 300.91064 
" clip-path="url(#pa5d9ebb126)" style="fill: none; opacity: 0.26; stroke: #254eff; stroke-width: 1.7; stroke-linecap: round"/>
   </g>
   <g id="patch_29">
    <path d="M 414.253735 373.96069 
Q 367.411597 323.711127 343.838272 330.685962 
" clip-path="url(#pa5d9ebb126)" style="fill: none; opacity: 0.26; stroke: #7b93b8; stroke-width: 1.7; stroke-linecap: round"/>
   </g>
   <g id="patch_30">
    <path d="M 414.253735 373.96069 
Q 393.792604 281.273434 363.620275 222.754836 
" clip-path="url(#pa5d9ebb126)" style="fill: none; opacity: 0.26; stroke: #7b93b8; stroke-width: 1.7; stroke-linecap: round"/>
   </g>
   <g id="patch_31">
    <path d="M 414.253735 373.96069 
Q 350.926461 293.717562 286.561197 283.501244 
" clip-path="url(#pa5d9ebb126)" style="fill: none; opacity: 0.26; stroke: #7b93b8; stroke-width: 1.7; stroke-linecap: round"/>
   </g>
   <g id="patch_32">
    <path d="M 414.253735 373.96069 
Q 352.930223 266.696551 269.149521 227.032234 
" clip-path="url(#pa5d9ebb126)" style="fill: none; opacity: 0.26; stroke: #7b93b8; stroke-width: 1.7; stroke-linecap: round"/>
   </g>
   <g id="patch_33">
    <path d="M 164.19511 53.861285 
Q 162.750088 153.197893 190.508391 210.079789 
" clip-path="url(#pa5d9ebb126)" style="fill: none; opacity: 0.26; stroke: #6b6358; stroke-width: 1.7; stroke-linecap: round"/>
   </g>
   <g id="patch_34">
    <path d="M 164.19511 53.861285 
Q 187.360066 148.122783 236.393552 179.401725 
" clip-path="url(#pa5d9ebb126)" style="fill: none; opacity: 0.26; stroke: #6b6358; stroke-width: 1.7; stroke-linecap: round"/>
   </g>
   <g id="patch_35">
    <path d="M 164.19511 53.861285 
Q 143.322512 169.433353 164.005369 259.103048 
" clip-path="url(#pa5d9ebb126)" style="fill: none; opacity: 0.26; stroke: #6b6358; stroke-width: 1.7; stroke-linecap: round"/>
   </g>
   <g id="PathCollection_1">
    <defs>
     <path id="C0_0_adc0020356" d="M 0 32.787193 
C 8.695265 32.787193 17.035565 29.332527 23.184046 23.184046 
C 29.332527 17.035565 32.787193 8.695265 32.787193 -0 
C 32.787193 -8.695265 29.332527 -17.035565 23.184046 -23.184046 
C 17.035565 -29.332527 8.695265 -32.787193 0 -32.787193 
C -8.695265 -32.787193 -17.035565 -29.332527 -23.184046 -23.184046 
C -29.332527 -17.035565 -32.787193 -8.695265 -32.787193 0 
C -32.787193 8.695265 -29.332527 17.035565 -23.184046 23.184046 
C -17.035565 29.332527 -8.695265 32.787193 0 32.787193 
z
"/>
    </defs>
    <g clip-path="url(#pa5d9ebb126)">
     <use xlink:href="#C0_0_adc0020356" x="253.44" y="453.018715" style="fill: #c96a2e; fill-opacity: 0.95; stroke: #35302e; stroke-opacity: 0.95; stroke-width: 1.2"/>
    </g>
    <g clip-path="url(#pa5d9ebb126)">
     <use xlink:href="#C0_0_adc0020356" x="414.253735" y="373.96069" style="fill: #7b93b8; fill-opacity: 0.95; stroke: #35302e; stroke-opacity: 0.95; stroke-width: 1.2"/>
    </g>
    <g clip-path="url(#pa5d9ebb126)">
     <use xlink:href="#C0_0_adc0020356" x="453.971447" y="196.318923" style="fill: #254eff; fill-opacity: 0.95; stroke: #35302e; stroke-opacity: 0.95; stroke-width: 1.2"/>
    </g>
    <g clip-path="url(#pa5d9ebb126)">
     <use xlink:href="#C0_0_adc0020356" x="342.68489" y="53.861285" style="fill: #e39a5f; fill-opacity: 0.95; stroke: #35302e; stroke-opacity: 0.95; stroke-width: 1.2"/>
    </g>
    <g clip-path="url(#pa5d9ebb126)">
     <use xlink:href="#C0_0_adc0020356" x="164.19511" y="53.861285" style="fill: #6b6358; fill-opacity: 0.95; stroke: #35302e; stroke-opacity: 0.95; stroke-width: 1.2"/>
    </g>
    <g clip-path="url(#pa5d9ebb126)">
     <use xlink:href="#C0_0_adc0020356" x="52.908553" y="196.318923" style="fill: #254eff; fill-opacity: 0.95; stroke: #35302e; stroke-opacity: 0.95; stroke-width: 1.2"/>
    </g>
    <g clip-path="url(#pa5d9ebb126)">
     <use xlink:href="#C0_0_adc0020356" x="92.626265" y="373.96069" style="fill: #7b93b8; fill-opacity: 0.95; stroke: #35302e; stroke-opacity: 0.95; stroke-width: 1.2"/>
    </g>
   </g>
   <g id="PathCollection_2">
    <path d="M 286.561197 298.912279 
C 290.648251 298.912279 294.56846 297.288475 297.458444 294.398491 
C 300.348428 291.508508 301.972232 287.588298 301.972232 283.501244 
C 301.972232 279.41419 300.348428 275.493981 297.458444 272.603997 
C 294.56846 269.714013 290.648251 268.090209 286.561197 268.090209 
C 282.474142 268.090209 278.553933 269.714013 275.663949 272.603997 
C 272.773965 275.493981 271.150162 279.41419 271.150162 283.501244 
C 271.150162 287.588298 272.773965 291.508508 275.663949 294.398491 
C 278.553933 297.288475 282.474142 298.912279 286.561197 298.912279 
z
" clip-path="url(#pa5d9ebb126)" style="fill: #767678; fill-opacity: 0.95; stroke: #ffffff; stroke-opacity: 0.95; stroke-width: 0.8"/>
    <path d="M 315.663809 148.19224 
C 318.716526 148.19224 321.644622 146.979382 323.803219 144.820785 
C 325.961816 142.662189 327.174673 139.734092 327.174673 136.681375 
C 327.174673 133.628658 325.961816 130.700562 323.803219 128.541965 
C 321.644622 126.383368 318.716526 125.170511 315.663809 125.170511 
C 312.611092 125.170511 309.682995 126.383368 307.524399 128.541965 
C 305.365802 130.700562 304.152944 133.628658 304.152944 136.681375 
C 304.152944 139.734092 305.365802 142.662189 307.524399 144.820785 
C 309.682995 146.979382 312.611092 148.19224 315.663809 148.19224 
z
" clip-path="url(#pa5d9ebb126)" style="fill: #b6bbc3; fill-opacity: 0.95; stroke: #ffffff; stroke-opacity: 0.95; stroke-width: 0.8"/>
    <path d="M 190.508391 228.586545 
C 195.41644 228.586545 200.124129 226.636557 203.594643 223.166042 
C 207.065158 219.695527 209.015146 214.987838 209.015146 210.079789 
C 209.015146 205.171741 207.065158 200.464052 203.594643 196.993537 
C 200.124129 193.523022 195.41644 191.573034 190.508391 191.573034 
C 185.600342 191.573034 180.892653 193.523022 177.422139 196.993537 
C 173.951624 200.464052 172.001635 205.171741 172.001635 210.079789 
C 172.001635 214.987838 173.951624 219.695527 177.422139 223.166042 
C 180.892653 226.636557 185.600342 228.586545 190.508391 228.586545 
z
" clip-path="url(#pa5d9ebb126)" style="fill: #36302e; fill-opacity: 0.95; stroke: #ffffff; stroke-opacity: 0.95; stroke-width: 0.8"/>
    <path d="M 343.135834 290.108047 
C 347.222888 290.108047 351.143097 288.484243 354.033081 285.594259 
C 356.923065 282.704275 358.546869 278.784066 358.546869 274.697012 
C 358.546869 270.609958 356.923065 266.689748 354.033081 263.799764 
C 351.143097 260.909781 347.222888 259.285977 343.135834 259.285977 
C 339.048779 259.285977 335.12857 260.909781 332.238586 263.799764 
C 329.348603 266.689748 327.724799 270.609958 327.724799 274.697012 
C 327.724799 278.784066 329.348603 282.704275 332.238586 285.594259 
C 335.12857 288.484243 339.048779 290.108047 343.135834 290.108047 
z
" clip-path="url(#pa5d9ebb126)" style="fill: #767678; fill-opacity: 0.95; stroke: #ffffff; stroke-opacity: 0.95; stroke-width: 0.8"/>
    <path d="M 178.170799 167.802249 
C 181.777951 167.802249 185.237849 166.369113 187.788491 163.818471 
C 190.339132 161.267829 191.772269 157.807931 191.772269 154.200779 
C 191.772269 150.593627 190.339132 147.133729 187.788491 144.583087 
C 185.237849 142.032445 181.777951 140.599308 178.170799 140.599308 
C 174.563647 140.599308 171.103748 142.032445 168.553107 144.583087 
C 166.002465 147.133729 164.569328 150.593627 164.569328 154.200779 
C 164.569328 157.807931 166.002465 161.267829 168.553107 163.818471 
C 171.103748 166.369113 174.563647 167.802249 178.170799 167.802249 
z
" clip-path="url(#pa5d9ebb126)" style="fill: #96989e; fill-opacity: 0.95; stroke: #ffffff; stroke-opacity: 0.95; stroke-width: 0.8"/>
    <path d="M 236.393552 196.431111 
C 240.909798 196.431111 245.241678 194.636787 248.435146 191.443319 
C 251.628615 188.249851 253.422938 183.917971 253.422938 179.401725 
C 253.422938 174.885479 251.628615 170.553598 248.435146 167.36013 
C 245.241678 164.166662 240.909798 162.372338 236.393552 162.372338 
C 231.877306 162.372338 227.545426 164.166662 224.351957 167.36013 
C 221.158489 170.553598 219.364166 174.885479 219.364166 179.401725 
C 219.364166 183.917971 221.158489 188.249851 224.351957 191.443319 
C 227.545426 194.636787 231.877306 196.431111 236.393552 196.431111 
z
" clip-path="url(#pa5d9ebb126)" style="fill: #565353; fill-opacity: 0.95; stroke: #ffffff; stroke-opacity: 0.95; stroke-width: 0.8"/>
    <path d="M 169.977836 358.949977 
C 173.030553 358.949977 175.958649 357.73712 178.117246 355.578523 
C 180.275843 353.419926 181.4887 350.491829 181.4887 347.439112 
C 181.4887 344.386395 180.275843 341.458299 178.117246 339.299702 
C 175.958649 337.141105 173.030553 335.928248 169.977836 335.928248 
C 166.925119 335.928248 163.997022 337.141105 161.838425 339.299702 
C 159.679828 341.458299 158.466971 344.386395 158.466971 347.439112 
C 158.466971 350.491829 159.679828 353.419926 161.838425 355.578523 
C 163.997022 357.73712 166.925119 358.949977 169.977836 358.949977 
z
" clip-path="url(#pa5d9ebb126)" style="fill: #b6bbc3; fill-opacity: 0.95; stroke: #ffffff; stroke-opacity: 0.95; stroke-width: 0.8"/>
    <path d="M 269.149521 244.06162 
C 273.665768 244.06162 277.997648 242.267297 281.191116 239.073828 
C 284.384584 235.88036 286.178908 231.54848 286.178908 227.032234 
C 286.178908 222.515988 284.384584 218.184108 281.191116 214.990639 
C 277.997648 211.797171 273.665768 210.002848 269.149521 210.002848 
C 264.633275 210.002848 260.301395 211.797171 257.107927 214.990639 
C 253.914459 218.184108 252.120135 222.515988 252.120135 227.032234 
C 252.120135 231.54848 253.914459 235.88036 257.107927 239.073828 
C 260.301395 242.267297 264.633275 244.06162 269.149521 244.06162 
z
" clip-path="url(#pa5d9ebb126)" style="fill: #565353; fill-opacity: 0.95; stroke: #ffffff; stroke-opacity: 0.95; stroke-width: 0.8"/>
    <path d="M 164.005369 276.132435 
C 168.521615 276.132435 172.853496 274.338111 176.046964 271.144643 
C 179.240432 267.951175 181.034756 263.619294 181.034756 259.103048 
C 181.034756 254.586802 179.240432 250.254922 176.046964 247.061454 
C 172.853496 243.867986 168.521615 242.073662 164.005369 242.073662 
C 159.489123 242.073662 155.157243 243.867986 151.963775 247.061454 
C 148.770306 250.254922 146.975983 254.586802 146.975983 259.103048 
C 146.975983 263.619294 148.770306 267.951175 151.963775 271.144643 
C 155.157243 274.338111 159.489123 276.132435 164.005369 276.132435 
z
" clip-path="url(#pa5d9ebb126)" style="fill: #565353; fill-opacity: 0.95; stroke: #ffffff; stroke-opacity: 0.95; stroke-width: 0.8"/>
    <path d="M 200.492687 316.321675 
C 204.579741 316.321675 208.499951 314.697871 211.389934 311.807888 
C 214.279918 308.917904 215.903722 304.997694 215.903722 300.91064 
C 215.903722 296.823586 214.279918 292.903377 211.389934 290.013393 
C 208.499951 287.123409 204.579741 285.499605 200.492687 285.499605 
C 196.405633 285.499605 192.485423 287.123409 189.59544 290.013393 
C 186.705456 292.903377 185.081652 296.823586 185.081652 300.91064 
C 185.081652 304.997694 186.705456 308.917904 189.59544 311.807888 
C 192.485423 314.697871 196.405633 316.321675 200.492687 316.321675 
z
" clip-path="url(#pa5d9ebb126)" style="fill: #767678; fill-opacity: 0.95; stroke: #ffffff; stroke-opacity: 0.95; stroke-width: 0.8"/>
    <path d="M 128.339612 228.073772 
C 131.392328 228.073772 134.320425 226.860915 136.479022 224.702318 
C 138.637619 222.543721 139.850476 219.615624 139.850476 216.562907 
C 139.850476 213.510191 138.637619 210.582094 136.479022 208.423497 
C 134.320425 206.2649 131.392328 205.052043 128.339612 205.052043 
C 125.286895 205.052043 122.358798 206.2649 120.200201 208.423497 
C 118.041604 210.582094 116.828747 213.510191 116.828747 216.562907 
C 116.828747 219.615624 118.041604 222.543721 120.200201 224.702318 
C 122.358798 226.860915 125.286895 228.073772 128.339612 228.073772 
z
" clip-path="url(#pa5d9ebb126)" style="fill: #b6bbc3; fill-opacity: 0.95; stroke: #ffffff; stroke-opacity: 0.95; stroke-width: 0.8"/>
    <path d="M 363.620275 236.356306 
C 367.227428 236.356306 370.687326 234.92317 373.237967 232.372528 
C 375.788609 229.821886 377.221746 226.361988 377.221746 222.754836 
C 377.221746 219.147684 375.788609 215.687785 373.237967 213.137144 
C 370.687326 210.586502 367.227428 209.153365 363.620275 209.153365 
C 360.013123 209.153365 356.553225 210.586502 354.002583 213.137144 
C 351.451942 215.687785 350.018805 219.147684 350.018805 222.754836 
C 350.018805 226.361988 351.451942 229.821886 354.002583 232.372528 
C 356.553225 234.92317 360.013123 236.356306 363.620275 236.356306 
z
" clip-path="url(#pa5d9ebb126)" style="fill: #96989e; fill-opacity: 0.95; stroke: #ffffff; stroke-opacity: 0.95; stroke-width: 0.8"/>
    <path d="M 343.838272 342.196827 
C 346.890989 342.196827 349.819086 340.98397 351.977683 338.825373 
C 354.13628 336.666776 355.349137 333.738679 355.349137 330.685962 
C 355.349137 327.633246 354.13628 324.705149 351.977683 322.546552 
C 349.819086 320.387955 346.890989 319.175098 343.838272 319.175098 
C 340.785556 319.175098 337.857459 320.387955 335.698862 322.546552 
C 333.540265 324.705149 332.327408 327.633246 332.327408 330.685962 
C 332.327408 333.738679 333.540265 336.666776 335.698862 338.825373 
C 337.857459 340.98397 340.785556 342.196827 343.838272 342.196827 
z
" clip-path="url(#pa5d9ebb126)" style="fill: #b6bbc3; fill-opacity: 0.95; stroke: #ffffff; stroke-opacity: 0.95; stroke-width: 0.8"/>
   </g>
   <g id="text_1">
    <text style="font-size: 9.3px; font-family: 'Univers'; fill: #ffffff" transform="translate(273.414048 282.260319)">LoRA/</text>
    <text style="font-size: 9.3px; font-family: 'Univers'; fill: #ffffff" transform="translate(271.320095 292.674284)">QLoRA</text>
   </g>
   <g id="text_2">
    <text style="font-size: 9.3px; font-family: 'Univers'; text-anchor: middle; fill: #35302e" x="315.663809" y="140.647433" transform="rotate(-0 315.663809 140.647433)">Mixtures-of-Experts</text>
   </g>
   <g id="text_3">
    <text style="font-size: 9.3px; font-family: 'Univers'; fill: #ffffff" transform="translate(179.405789 208.838864)">Data</text>
    <text style="font-size: 9.3px; font-family: 'Univers'; fill: #ffffff" transform="translate(170.646352 219.25283)">Curation</text>
   </g>
   <g id="text_4">
    <text style="font-size: 9.3px; font-family: 'Univers'; fill: #ffffff" transform="translate(322.516717 273.456086)">Dialogue</text>
    <text style="font-size: 9.3px; font-family: 'Univers'; fill: #ffffff" transform="translate(323.373334 283.870052)">Systems</text>
   </g>
   <g id="text_5">
    <text style="font-size: 9.3px; font-family: 'Univers'; fill: #35302e" transform="translate(158.705463 152.959853)">Machine</text>
    <text style="font-size: 9.3px; font-family: 'Univers'; fill: #35302e" transform="translate(152.837744 163.373819)">Translation</text>
   </g>
   <g id="text_6">
    <text style="font-size: 9.3px; font-family: 'Univers'; fill: #ffffff" transform="translate(210.490146 178.160799)">Supervised</text>
    <text style="font-size: 9.3px; font-family: 'Univers'; fill: #ffffff" transform="translate(210.370989 188.574765)">Fine-tuning</text>
   </g>
   <g id="text_7">
    <text style="font-size: 9.3px; font-family: 'Univers'; text-anchor: middle; fill: #35302e" x="169.977836" y="351.40517" transform="rotate(-0 169.977836 351.40517)">ASR</text>
   </g>
   <g id="text_8">
    <text style="font-size: 9.3px; font-family: 'Univers'; text-anchor: middle; fill: #ffffff" x="269.149521" y="230.998291" transform="rotate(-0 269.149521 230.998291)">Benchmarking</text>
   </g>
   <g id="text_9">
    <text style="font-size: 9.3px; font-family: 'Univers'; fill: #ffffff" transform="translate(142.051557 257.862123)">Synthetic</text>
    <text style="font-size: 9.3px; font-family: 'Univers'; fill: #ffffff" transform="translate(152.902768 268.276088)">Data</text>
   </g>
   <g id="text_10">
    <text style="font-size: 9.3px; font-family: 'Univers'; text-anchor: middle; fill: #ffffff" x="200.492687" y="304.876697" transform="rotate(-0 200.492687 304.876697)">Quantization</text>
   </g>
   <g id="text_11">
    <text style="font-size: 9.3px; font-family: 'Univers'; fill: #35302e" transform="translate(104.849119 215.321982)">Federated</text>
    <text style="font-size: 9.3px; font-family: 'Univers'; fill: #35302e" transform="translate(108.151346 225.735948)">Learning</text>
   </g>
   <g id="text_12">
    <text style="font-size: 9.3px; font-family: 'Univers'; fill: #35302e" transform="translate(341.431057 221.51391)">Continual</text>
    <text style="font-size: 9.3px; font-family: 'Univers'; fill: #35302e" transform="translate(338.216018 231.927876)">Pretraining</text>
   </g>
   <g id="text_13">
    <text style="font-size: 9.3px; font-family: 'Univers'; text-anchor: middle; fill: #35302e" x="343.838272" y="334.65202" transform="rotate(-0 343.838272 334.65202)">Distillation</text>
   </g>
   <g id="text_14">
    <text style="font-weight: 700; font-size: 11px; font-family: 'Tomato Grotesk'; fill: #ffffff" transform="translate(240.649062 450.897047)">Agri</text>
    <text style="font-weight: 700; font-size: 11px; font-family: 'Tomato Grotesk'; fill: #ffffff" transform="translate(231.391875 461.211008)">culture</text>
   </g>
   <g id="text_15">
    <text style="font-weight: 700; font-size: 12px; font-family: 'Tomato Grotesk'; text-anchor: middle; fill: #ffffff" x="414.253735" y="377.27194" transform="rotate(-0 414.253735 377.27194)">Climate</text>
   </g>
   <g id="text_16">
    <text style="font-weight: 700; font-size: 12px; font-family: 'Tomato Grotesk'; text-anchor: middle; fill: #ffffff" x="453.971447" y="199.630173" transform="rotate(-0 453.971447 199.630173)">Finance</text>
   </g>
   <g id="text_17">
    <text style="font-weight: 700; font-size: 11px; font-family: 'Tomato Grotesk'; fill: #ffffff" transform="translate(322.210281 51.782586)">Health</text>
    <text style="font-weight: 700; font-size: 11px; font-family: 'Tomato Grotesk'; fill: #ffffff" transform="translate(329.270046 62.01061)">care</text>
   </g>
   <g id="text_18">
    <text style="font-weight: 700; font-size: 12px; font-family: 'Tomato Grotesk'; text-anchor: middle; fill: #ffffff" x="164.19511" y="57.12566" transform="rotate(-0 164.19511 57.12566)">Legal</text>
   </g>
   <g id="text_19">
    <text style="font-weight: 700; font-size: 12px; font-family: 'Tomato Grotesk'; text-anchor: middle; fill: #ffffff" x="52.908553" y="199.630173" transform="rotate(-0 52.908553 199.630173)">Social</text>
   </g>
   <g id="text_20">
    <text style="font-weight: 700; font-size: 12px; font-family: 'Tomato Grotesk'; text-anchor: middle; fill: #ffffff" x="92.626265" y="377.27194" transform="rotate(-0 92.626265 377.27194)">Speech</text>
   </g>
  </g>
 </g>
 <defs>
  <clipPath id="pa5d9ebb126">
   <rect x="7.2" y="7.2" width="492.48" height="492.48"/>
  </clipPath>
 </defs>
</svg>
