<?xml version="1.0" encoding="utf-8" standalone="no"?>
<!DOCTYPE svg PUBLIC "-//W3C//DTD SVG 1.1//EN"
  "http://www.w3.org/Graphics/SVG/1.1/DTD/svg11.dtd">
<svg xmlns:xlink="http://www.w3.org/1999/xlink" width="506.88pt" height="506.88pt" viewBox="0 0 506.88 506.88" xmlns="http://www.w3.org/2000/svg" version="1.1">
 <metadata>
  <rdf:RDF xmlns:dc="http://purl.org/dc/elements/1.1/" xmlns:cc="http://creativecommons.org/ns#" xmlns:rdf="http://www.w3.org/1999/02/22-rdf-syntax-ns#">
   <cc:Work>
    <dc:type rdf:resource="http://purl.org/dc/dcmitype/StillImage"/>
    <dc:date>2026-04-25T20:00:09.613103</dc:date>
    <dc:format>image/svg+xml</dc:format>
    <dc:creator>
     <cc:Agent>
      <dc:title>Matplotlib v3.10.8, https://matplotlib.org/</dc:title>
     </cc:Agent>
    </dc:creator>
   </cc:Work>
  </rdf:RDF>
 </metadata>
 <defs>
  <style type="text/css">*{stroke-linejoin: round; stroke-linecap: butt}</style>
 </defs>
 <g id="figure_1">
  <g id="patch_1">
   <path d="M 0 506.88 
L 506.88 506.88 
L 506.88 0 
L 0 0 
L 0 506.88 
z
" style="fill: none"/>
  </g>
  <g id="axes_1">
   <g id="patch_2">
    <path d="M 331.145552 80.133828 
Q 261.953781 135.823395 239.182944 190.638556 
" clip-path="url(#pfc16a7b694)" style="fill: none; opacity: 0.26; stroke: #e39a5f; stroke-width: 2.6; stroke-linecap: round"/>
   </g>
   <g id="patch_3">
    <path d="M 331.145552 80.133828 
Q 244.426909 117.000224 188.630642 166.935658 
" clip-path="url(#pfc16a7b694)" style="fill: none; opacity: 0.26; stroke: #e39a5f; stroke-width: 1.7; stroke-linecap: round"/>
   </g>
   <g id="patch_4">
    <path d="M 331.145552 80.133828 
Q 297.481985 131.268469 307.618289 152.051481 
" clip-path="url(#pfc16a7b694)" style="fill: none; opacity: 0.26; stroke: #e39a5f; stroke-width: 1.7; stroke-linecap: round"/>
   </g>
   <g id="patch_5">
    <path d="M 331.145552 80.133828 
Q 231.06777 174.504496 207.360146 294.612427 
" clip-path="url(#pfc16a7b694)" style="fill: none; opacity: 0.26; stroke: #e39a5f; stroke-width: 1.7; stroke-linecap: round"/>
   </g>
   <g id="patch_6">
    <path d="M 331.145552 80.133828 
Q 302.762608 170.272364 349.413047 226.804856 
" clip-path="url(#pfc16a7b694)" style="fill: none; opacity: 0.26; stroke: #e39a5f; stroke-width: 1.7; stroke-linecap: round"/>
   </g>
   <g id="patch_7">
    <path d="M 331.145552 80.133828 
Q 267.1689 157.603107 267.118286 230.508553 
" clip-path="url(#pfc16a7b694)" style="fill: none; opacity: 0.26; stroke: #e39a5f; stroke-width: 4.4; stroke-linecap: round"/>
   </g>
   <g id="patch_8">
    <path d="M 331.145552 80.133828 
Q 240.126348 138.821743 197.297721 214.750828 
" clip-path="url(#pfc16a7b694)" style="fill: none; opacity: 0.26; stroke: #e39a5f; stroke-width: 1.7; stroke-linecap: round"/>
   </g>
   <g id="patch_9">
    <path d="M 331.145552 80.133828 
Q 287.636886 186.341112 331.537813 271.893184 
" clip-path="url(#pfc16a7b694)" style="fill: none; opacity: 0.26; stroke: #e39a5f; stroke-width: 1.7; stroke-linecap: round"/>
   </g>
   <g id="patch_10">
    <path d="M 78.83721 203.838341 
Q 178.849078 277.310252 282.278636 279.543982 
" clip-path="url(#pfc16a7b694)" style="fill: none; opacity: 0.26; stroke: #254eff; stroke-width: 3.5; stroke-linecap: round"/>
   </g>
   <g id="patch_11">
    <path d="M 78.83721 203.838341 
Q 175.378636 232.066574 239.182944 190.638556 
" clip-path="url(#pfc16a7b694)" style="fill: none; opacity: 0.26; stroke: #254eff; stroke-width: 3.5; stroke-linecap: round"/>
   </g>
   <g id="patch_12">
    <path d="M 78.83721 203.838341 
Q 157.851764 213.243404 188.630642 166.935658 
" clip-path="url(#pfc16a7b694)" style="fill: none; opacity: 0.26; stroke: #254eff; stroke-width: 3.5; stroke-linecap: round"/>
   </g>
   <g id="patch_13">
    <path d="M 78.83721 203.838341 
Q 153.551203 235.064923 197.297721 214.750828 
" clip-path="url(#pfc16a7b694)" style="fill: none; opacity: 0.26; stroke: #254eff; stroke-width: 5.3; stroke-linecap: round"/>
   </g>
   <g id="patch_14">
    <path d="M 78.83721 203.838341 
Q 136.942717 249.860697 175.400374 258.481889 
" clip-path="url(#pfc16a7b694)" style="fill: none; opacity: 0.26; stroke: #254eff; stroke-width: 2.6; stroke-linecap: round"/>
   </g>
   <g id="patch_15">
    <path d="M 78.83721 203.838341 
Q 180.593754 253.846287 267.118286 230.508553 
" clip-path="url(#pfc16a7b694)" style="fill: none; opacity: 0.26; stroke: #254eff; stroke-width: 2.6; stroke-linecap: round"/>
   </g>
   <g id="patch_16">
    <path d="M 113.419434 358.095346 
Q 184.947556 330.321517 207.360146 294.612427 
" clip-path="url(#pfc16a7b694)" style="fill: none; opacity: 0.26; stroke: #7b93b8; stroke-width: 2.6; stroke-linecap: round"/>
   </g>
   <g id="patch_17">
    <path d="M 113.419434 358.095346 
Q 166.911108 342.8974 180.797217 335.020226 
" clip-path="url(#pfc16a7b694)" style="fill: none; opacity: 0.26; stroke: #7b93b8; stroke-width: 5.3; stroke-linecap: round"/>
   </g>
   <g id="patch_18">
    <path d="M 113.419434 358.095346 
Q 221.048685 313.420128 267.118286 230.508553 
" clip-path="url(#pfc16a7b694)" style="fill: none; opacity: 0.26; stroke: #7b93b8; stroke-width: 2.6; stroke-linecap: round"/>
   </g>
   <g id="patch_19">
    <path d="M 113.419434 358.095346 
Q 177.397648 309.434538 175.400374 258.481889 
" clip-path="url(#pfc16a7b694)" style="fill: none; opacity: 0.26; stroke: #7b93b8; stroke-width: 1.7; stroke-linecap: round"/>
   </g>
   <g id="patch_20">
    <path d="M 113.419434 358.095346 
Q 194.006134 294.638763 197.297721 214.750828 
" clip-path="url(#pfc16a7b694)" style="fill: none; opacity: 0.26; stroke: #7b93b8; stroke-width: 1.7; stroke-linecap: round"/>
   </g>
   <g id="patch_21">
    <path d="M 78.83721 203.838341 
Q 130.096962 228.723694 144.669651 221.262542 
" clip-path="url(#pfc16a7b694)" style="fill: none; opacity: 0.26; stroke: #254eff; stroke-width: 1.7; stroke-linecap: round"/>
   </g>
   <g id="patch_22">
    <path d="M 428.04279 203.838341 
Q 349.474112 222.14485 331.537813 271.893184 
" clip-path="url(#pfc16a7b694)" style="fill: none; opacity: 0.26; stroke: #254eff; stroke-width: 1.7; stroke-linecap: round"/>
   </g>
   <g id="patch_23">
    <path d="M 428.04279 203.838341 
Q 301.963575 174.625481 197.297721 214.750828 
" clip-path="url(#pfc16a7b694)" style="fill: none; opacity: 0.26; stroke: #254eff; stroke-width: 1.7; stroke-linecap: round"/>
   </g>
   <g id="patch_24">
    <path d="M 428.04279 203.838341 
Q 327.261449 216.87081 282.278636 279.543982 
" clip-path="url(#pfc16a7b694)" style="fill: none; opacity: 0.26; stroke: #254eff; stroke-width: 2.6; stroke-linecap: round"/>
   </g>
   <g id="patch_25">
    <path d="M 253.44 426.746172 
Q 312.488572 347.100398 331.537813 271.893184 
" clip-path="url(#pfc16a7b694)" style="fill: none; opacity: 0.26; stroke: #c96a2e; stroke-width: 1.7; stroke-linecap: round"/>
   </g>
   <g id="patch_26">
    <path d="M 253.44 426.746172 
Q 286.805467 296.582681 239.182944 190.638556 
" clip-path="url(#pfc16a7b694)" style="fill: none; opacity: 0.26; stroke: #c96a2e; stroke-width: 1.7; stroke-linecap: round"/>
   </g>
   <g id="patch_27">
    <path d="M 253.44 426.746172 
Q 248.369548 314.376804 175.400374 258.481889 
" clip-path="url(#pfc16a7b694)" style="fill: none; opacity: 0.26; stroke: #c96a2e; stroke-width: 1.7; stroke-linecap: round"/>
   </g>
   <g id="patch_28">
    <path d="M 78.83721 203.838341 
Q 144.492625 270.747676 207.360146 294.612427 
" clip-path="url(#pfc16a7b694)" style="fill: none; opacity: 0.26; stroke: #254eff; stroke-width: 1.7; stroke-linecap: round"/>
   </g>
   <g id="patch_29">
    <path d="M 393.460566 358.095346 
Q 352.659514 314.451787 332.11113 320.512233 
" clip-path="url(#pfc16a7b694)" style="fill: none; opacity: 0.26; stroke: #7b93b8; stroke-width: 1.7; stroke-linecap: round"/>
   </g>
   <g id="patch_30">
    <path d="M 393.460566 358.095346 
Q 375.659874 277.620715 349.413047 226.804856 
" clip-path="url(#pfc16a7b694)" style="fill: none; opacity: 0.26; stroke: #7b93b8; stroke-width: 1.7; stroke-linecap: round"/>
   </g>
   <g id="patch_31">
    <path d="M 393.460566 358.095346 
Q 338.32149 288.415424 282.278636 279.543982 
" clip-path="url(#pfc16a7b694)" style="fill: none; opacity: 0.26; stroke: #7b93b8; stroke-width: 1.7; stroke-linecap: round"/>
   </g>
   <g id="patch_32">
    <path d="M 393.460566 358.095346 
Q 340.066166 264.951459 267.118286 230.508553 
" clip-path="url(#pfc16a7b694)" style="fill: none; opacity: 0.26; stroke: #7b93b8; stroke-width: 1.7; stroke-linecap: round"/>
   </g>
   <g id="patch_33">
    <path d="M 175.734448 80.133828 
Q 174.07663 165.719825 197.297721 214.750828 
" clip-path="url(#pfc16a7b694)" style="fill: none; opacity: 0.26; stroke: #6b6358; stroke-width: 1.7; stroke-linecap: round"/>
   </g>
   <g id="patch_34">
    <path d="M 175.734448 80.133828 
Q 195.904062 162.721476 239.182944 190.638556 
" clip-path="url(#pfc16a7b694)" style="fill: none; opacity: 0.26; stroke: #6b6358; stroke-width: 1.7; stroke-linecap: round"/>
   </g>
   <g id="patch_35">
    <path d="M 175.734448 80.133828 
Q 157.468144 180.515599 175.400374 258.481889 
" clip-path="url(#pfc16a7b694)" style="fill: none; opacity: 0.26; stroke: #6b6358; stroke-width: 1.7; stroke-linecap: round"/>
   </g>
   <g id="PathCollection_1">
    <defs>
     <path id="C0_0_9f7a98ca36" d="M 0 32.787193 
C 8.695265 32.787193 17.035565 29.332527 23.184046 23.184046 
C 29.332527 17.035565 32.787193 8.695265 32.787193 -0 
C 32.787193 -8.695265 29.332527 -17.035565 23.184046 -23.184046 
C 17.035565 -29.332527 8.695265 -32.787193 0 -32.787193 
C -8.695265 -32.787193 -17.035565 -29.332527 -23.184046 -23.184046 
C -29.332527 -17.035565 -32.787193 -8.695265 -32.787193 0 
C -32.787193 8.695265 -29.332527 17.035565 -23.184046 23.184046 
C -17.035565 29.332527 -8.695265 32.787193 0 32.787193 
z
"/>
    </defs>
    <g clip-path="url(#pfc16a7b694)">
     <use xlink:href="#C0_0_9f7a98ca36" x="253.44" y="426.746172" style="fill: #c96a2e; fill-opacity: 0.95; stroke: #35302e; stroke-opacity: 0.95; stroke-width: 1.2"/>
    </g>
    <g clip-path="url(#pfc16a7b694)">
     <use xlink:href="#C0_0_9f7a98ca36" x="393.460566" y="358.095346" style="fill: #7b93b8; fill-opacity: 0.95; stroke: #35302e; stroke-opacity: 0.95; stroke-width: 1.2"/>
    </g>
    <g clip-path="url(#pfc16a7b694)">
     <use xlink:href="#C0_0_9f7a98ca36" x="428.04279" y="203.838341" style="fill: #254eff; fill-opacity: 0.95; stroke: #35302e; stroke-opacity: 0.95; stroke-width: 1.2"/>
    </g>
    <g clip-path="url(#pfc16a7b694)">
     <use xlink:href="#C0_0_9f7a98ca36" x="331.145552" y="80.133828" style="fill: #e39a5f; fill-opacity: 0.95; stroke: #35302e; stroke-opacity: 0.95; stroke-width: 1.2"/>
    </g>
    <g clip-path="url(#pfc16a7b694)">
     <use xlink:href="#C0_0_9f7a98ca36" x="175.734448" y="80.133828" style="fill: #6b6358; fill-opacity: 0.95; stroke: #35302e; stroke-opacity: 0.95; stroke-width: 1.2"/>
    </g>
    <g clip-path="url(#pfc16a7b694)">
     <use xlink:href="#C0_0_9f7a98ca36" x="78.83721" y="203.838341" style="fill: #254eff; fill-opacity: 0.95; stroke: #35302e; stroke-opacity: 0.95; stroke-width: 1.2"/>
    </g>
    <g clip-path="url(#pfc16a7b694)">
     <use xlink:href="#C0_0_9f7a98ca36" x="113.419434" y="358.095346" style="fill: #7b93b8; fill-opacity: 0.95; stroke: #35302e; stroke-opacity: 0.95; stroke-width: 1.2"/>
    </g>
   </g>
   <g id="PathCollection_2">
    <path d="M 239.182944 207.667942 
C 243.69919 207.667942 248.03107 205.873619 251.224539 202.680151 
C 254.418007 199.486682 256.21233 195.154802 256.21233 190.638556 
C 256.21233 186.12231 254.418007 181.79043 251.224539 178.596962 
C 248.03107 175.403493 243.69919 173.60917 239.182944 173.60917 
C 234.666698 173.60917 230.334818 175.403493 227.141349 178.596962 
C 223.947881 181.79043 222.153558 186.12231 222.153558 190.638556 
C 222.153558 195.154802 223.947881 199.486682 227.141349 202.680151 
C 230.334818 205.873619 234.666698 207.667942 239.182944 207.667942 
z
" clip-path="url(#pfc16a7b694)" style="fill: #565353; fill-opacity: 0.95; stroke: #ffffff; stroke-opacity: 0.95; stroke-width: 0.8"/>
    <path d="M 332.11113 332.023097 
C 335.163847 332.023097 338.091943 330.81024 340.25054 328.651643 
C 342.409137 326.493046 343.621994 323.56495 343.621994 320.512233 
C 343.621994 317.459516 342.409137 314.531419 340.25054 312.372822 
C 338.091943 310.214225 335.163847 309.001368 332.11113 309.001368 
C 329.058413 309.001368 326.130316 310.214225 323.971719 312.372822 
C 321.813122 314.531419 320.600265 317.459516 320.600265 320.512233 
C 320.600265 323.56495 321.813122 326.493046 323.971719 328.651643 
C 326.130316 330.81024 329.058413 332.023097 332.11113 332.023097 
z
" clip-path="url(#pfc16a7b694)" style="fill: #b6bbc3; fill-opacity: 0.95; stroke: #ffffff; stroke-opacity: 0.95; stroke-width: 0.8"/>
    <path d="M 331.537813 287.304219 
C 335.624867 287.304219 339.545076 285.680415 342.43506 282.790431 
C 345.325044 279.900447 346.948848 275.980238 346.948848 271.893184 
C 346.948848 267.80613 345.325044 263.88592 342.43506 260.995937 
C 339.545076 258.105953 335.624867 256.482149 331.537813 256.482149 
C 327.450759 256.482149 323.530549 258.105953 320.640565 260.995937 
C 317.750582 263.88592 316.126778 267.80613 316.126778 271.893184 
C 316.126778 275.980238 317.750582 279.900447 320.640565 282.790431 
C 323.530549 285.680415 327.450759 287.304219 331.537813 287.304219 
z
" clip-path="url(#pfc16a7b694)" style="fill: #767678; fill-opacity: 0.95; stroke: #ffffff; stroke-opacity: 0.95; stroke-width: 0.8"/>
    <path d="M 144.669651 232.773406 
C 147.722368 232.773406 150.650464 231.560549 152.809061 229.401952 
C 154.967658 227.243355 156.180515 224.315259 156.180515 221.262542 
C 156.180515 218.209825 154.967658 215.281728 152.809061 213.123131 
C 150.650464 210.964535 147.722368 209.751677 144.669651 209.751677 
C 141.616934 209.751677 138.688837 210.964535 136.53024 213.123131 
C 134.371644 215.281728 133.158786 218.209825 133.158786 221.262542 
C 133.158786 224.315259 134.371644 227.243355 136.53024 229.401952 
C 138.688837 231.560549 141.616934 232.773406 144.669651 232.773406 
z
" clip-path="url(#pfc16a7b694)" style="fill: #b6bbc3; fill-opacity: 0.95; stroke: #ffffff; stroke-opacity: 0.95; stroke-width: 0.8"/>
    <path d="M 180.797217 346.531091 
C 183.849934 346.531091 186.778031 345.318233 188.936628 343.159636 
C 191.095225 341.00104 192.308082 338.072943 192.308082 335.020226 
C 192.308082 331.967509 191.095225 329.039413 188.936628 326.880816 
C 186.778031 324.722219 183.849934 323.509362 180.797217 323.509362 
C 177.744501 323.509362 174.816404 324.722219 172.657807 326.880816 
C 170.49921 329.039413 169.286353 331.967509 169.286353 335.020226 
C 169.286353 338.072943 170.49921 341.00104 172.657807 343.159636 
C 174.816404 345.318233 177.744501 346.531091 180.797217 346.531091 
z
" clip-path="url(#pfc16a7b694)" style="fill: #b6bbc3; fill-opacity: 0.95; stroke: #ffffff; stroke-opacity: 0.95; stroke-width: 0.8"/>
    <path d="M 307.618289 163.562346 
C 310.671006 163.562346 313.599102 162.349488 315.757699 160.190892 
C 317.916296 158.032295 319.129153 155.104198 319.129153 152.051481 
C 319.129153 148.998764 317.916296 146.070668 315.757699 143.912071 
C 313.599102 141.753474 310.671006 140.540617 307.618289 140.540617 
C 304.565572 140.540617 301.637475 141.753474 299.478878 143.912071 
C 297.320282 146.070668 296.107424 148.998764 296.107424 152.051481 
C 296.107424 155.104198 297.320282 158.032295 299.478878 160.190892 
C 301.637475 162.349488 304.565572 163.562346 307.618289 163.562346 
z
" clip-path="url(#pfc16a7b694)" style="fill: #b6bbc3; fill-opacity: 0.95; stroke: #ffffff; stroke-opacity: 0.95; stroke-width: 0.8"/>
    <path d="M 282.278636 294.955017 
C 286.365691 294.955017 290.2859 293.331213 293.175884 290.441229 
C 296.065867 287.551245 297.689671 283.631036 297.689671 279.543982 
C 297.689671 275.456928 296.065867 271.536718 293.175884 268.646734 
C 290.2859 265.756751 286.365691 264.132947 282.278636 264.132947 
C 278.191582 264.132947 274.271373 265.756751 271.381389 268.646734 
C 268.491405 271.536718 266.867601 275.456928 266.867601 279.543982 
C 266.867601 283.631036 268.491405 287.551245 271.381389 290.441229 
C 274.271373 293.331213 278.191582 294.955017 282.278636 294.955017 
z
" clip-path="url(#pfc16a7b694)" style="fill: #767678; fill-opacity: 0.95; stroke: #ffffff; stroke-opacity: 0.95; stroke-width: 0.8"/>
    <path d="M 188.630642 180.537129 
C 192.237794 180.537129 195.697692 179.103992 198.248334 176.55335 
C 200.798975 174.002709 202.232112 170.54281 202.232112 166.935658 
C 202.232112 163.328506 200.798975 159.868608 198.248334 157.317966 
C 195.697692 154.767325 192.237794 153.334188 188.630642 153.334188 
C 185.023489 153.334188 181.563591 154.767325 179.012949 157.317966 
C 176.462308 159.868608 175.029171 163.328506 175.029171 166.935658 
C 175.029171 170.54281 176.462308 174.002709 179.012949 176.55335 
C 181.563591 179.103992 185.023489 180.537129 188.630642 180.537129 
z
" clip-path="url(#pfc16a7b694)" style="fill: #96989e; fill-opacity: 0.95; stroke: #ffffff; stroke-opacity: 0.95; stroke-width: 0.8"/>
    <path d="M 175.400374 275.511275 
C 179.91662 275.511275 184.2485 273.716952 187.441969 270.523483 
C 190.635437 267.330015 192.42976 262.998135 192.42976 258.481889 
C 192.42976 253.965643 190.635437 249.633763 187.441969 246.440294 
C 184.2485 243.246826 179.91662 241.452503 175.400374 241.452503 
C 170.884128 241.452503 166.552248 243.246826 163.358779 246.440294 
C 160.165311 249.633763 158.370988 253.965643 158.370988 258.481889 
C 158.370988 262.998135 160.165311 267.330015 163.358779 270.523483 
C 166.552248 273.716952 170.884128 275.511275 175.400374 275.511275 
z
" clip-path="url(#pfc16a7b694)" style="fill: #565353; fill-opacity: 0.95; stroke: #ffffff; stroke-opacity: 0.95; stroke-width: 0.8"/>
    <path d="M 207.360146 310.023462 
C 211.4472 310.023462 215.367409 308.399658 218.257393 305.509674 
C 221.147377 302.61969 222.771181 298.699481 222.771181 294.612427 
C 222.771181 290.525372 221.147377 286.605163 218.257393 283.715179 
C 215.367409 280.825195 211.4472 279.201392 207.360146 279.201392 
C 203.273091 279.201392 199.352882 280.825195 196.462898 283.715179 
C 193.572914 286.605163 191.949111 290.525372 191.949111 294.612427 
C 191.949111 298.699481 193.572914 302.61969 196.462898 305.509674 
C 199.352882 308.399658 203.273091 310.023462 207.360146 310.023462 
z
" clip-path="url(#pfc16a7b694)" style="fill: #767678; fill-opacity: 0.95; stroke: #ffffff; stroke-opacity: 0.95; stroke-width: 0.8"/>
    <path d="M 197.297721 233.257584 
C 202.20577 233.257584 206.913458 231.307595 210.383973 227.837081 
C 213.854488 224.366566 215.804476 219.658877 215.804476 214.750828 
C 215.804476 209.842779 213.854488 205.135091 210.383973 201.664576 
C 206.913458 198.194061 202.20577 196.244073 197.297721 196.244073 
C 192.389672 196.244073 187.681983 198.194061 184.211468 201.664576 
C 180.740954 205.135091 178.790965 209.842779 178.790965 214.750828 
C 178.790965 219.658877 180.740954 224.366566 184.211468 227.837081 
C 187.681983 231.307595 192.389672 233.257584 197.297721 233.257584 
z
" clip-path="url(#pfc16a7b694)" style="fill: #36302e; fill-opacity: 0.95; stroke: #ffffff; stroke-opacity: 0.95; stroke-width: 0.8"/>
    <path d="M 267.118286 247.537939 
C 271.634532 247.537939 275.966412 245.743615 279.159881 242.550147 
C 282.353349 239.356679 284.147672 235.024799 284.147672 230.508553 
C 284.147672 225.992307 282.353349 221.660426 279.159881 218.466958 
C 275.966412 215.27349 271.634532 213.479166 267.118286 213.479166 
C 262.60204 213.479166 258.27016 215.27349 255.076691 218.466958 
C 251.883223 221.660426 250.0889 225.992307 250.0889 230.508553 
C 250.0889 235.024799 251.883223 239.356679 255.076691 242.550147 
C 258.27016 245.743615 262.60204 247.537939 267.118286 247.537939 
z
" clip-path="url(#pfc16a7b694)" style="fill: #565353; fill-opacity: 0.95; stroke: #ffffff; stroke-opacity: 0.95; stroke-width: 0.8"/>
    <path d="M 349.413047 240.406327 
C 353.020199 240.406327 356.480097 238.97319 359.030739 236.422548 
C 361.58138 233.871906 363.014517 230.412008 363.014517 226.804856 
C 363.014517 223.197704 361.58138 219.737806 359.030739 217.187164 
C 356.480097 214.636522 353.020199 213.203386 349.413047 213.203386 
C 345.805894 213.203386 342.345996 214.636522 339.795355 217.187164 
C 337.244713 219.737806 335.811576 223.197704 335.811576 226.804856 
C 335.811576 230.412008 337.244713 233.871906 339.795355 236.422548 
C 342.345996 238.97319 345.805894 240.406327 349.413047 240.406327 
z
" clip-path="url(#pfc16a7b694)" style="fill: #96989e; fill-opacity: 0.95; stroke: #ffffff; stroke-opacity: 0.95; stroke-width: 0.8"/>
   </g>
   <g id="patch_36">
    <path d="M 225.600386 180.487704 
Q 230.788353 184.364903 235.97632 188.242102 
" style="fill: none; opacity: 0.45; stroke: #6b6358; stroke-width: 0.75; stroke-linecap: round"/>
   </g>
   <g id="text_1">
    <text style="font-size: 9.3px; font-family: 'Univers'; fill: #35302e" transform="translate(180.945685 163.744208)">Supervised</text>
    <text style="font-size: 9.3px; font-family: 'Univers'; fill: #35302e" transform="translate(180.707372 174.158174)">Fine-tuning</text>
   </g>
   <g id="patch_37">
    <path d="M 355.023469 329.810766 
Q 345.420257 325.913486 335.817044 322.016207 
" style="fill: none; opacity: 0.45; stroke: #6b6358; stroke-width: 0.75; stroke-linecap: round"/>
   </g>
   <g id="text_2">
    <text style="font-size: 9.3px; font-family: 'Univers'; text-anchor: start; fill: #35302e" x="349.999367" y="340.38221" transform="rotate(-0 349.999367 340.38221)">Distillation</text>
   </g>
   <g id="patch_38">
    <path d="M 348.928545 275.141136 
Q 342.2011 273.884696 335.473655 272.628255 
" style="fill: none; opacity: 0.45; stroke: #6b6358; stroke-width: 0.75; stroke-linecap: round"/>
   </g>
   <g id="text_3">
    <text style="font-size: 9.3px; font-family: 'Univers'; fill: #35302e" transform="translate(354.859149 277.458888)">Dialogue</text>
    <text style="font-size: 9.3px; font-family: 'Univers'; fill: #35302e" transform="translate(354.859149 287.872854)">Systems</text>
   </g>
   <g id="patch_39">
    <path d="M 126.492525 219.301372 
Q 133.590746 220.067215 140.688967 220.833057 
" style="fill: none; opacity: 0.45; stroke: #6b6358; stroke-width: 0.75; stroke-linecap: round"/>
   </g>
   <g id="text_4">
    <text style="font-size: 9.3px; font-family: 'Univers'; fill: #35302e" transform="translate(73.535707 213.481422)">Federated</text>
    <text style="font-size: 9.3px; font-family: 'Univers'; fill: #35302e" transform="translate(80.14016 223.895388)">Learning</text>
   </g>
   <g id="patch_40">
    <path d="M 167.327798 345.519685 
Q 172.485704 341.499079 177.643611 337.478474 
" style="fill: none; opacity: 0.45; stroke: #6b6358; stroke-width: 0.75; stroke-linecap: round"/>
   </g>
   <g id="text_5">
    <text style="font-size: 9.3px; font-family: 'Univers'; text-anchor: end; fill: #35302e" x="165.194395" y="357.048121" transform="rotate(-0 165.194395 357.048121)">ASR</text>
   </g>
   <g id="patch_41">
    <path d="M 344.319336 138.379597 
Q 327.843738 144.517092 311.368139 150.654586 
" style="fill: none; opacity: 0.45; stroke: #6b6358; stroke-width: 0.75; stroke-linecap: round"/>
   </g>
   <g id="text_6">
    <text style="font-size: 9.3px; font-family: 'Univers'; text-anchor: start; fill: #35302e" x="320.270092" y="133.049612" transform="rotate(-0 320.270092 133.049612)">Mixtures-of-Experts</text>
   </g>
   <g id="patch_42">
    <path d="M 292.702448 286.012303 
Q 289.189247 283.832245 285.676045 281.652187 
" style="fill: none; opacity: 0.45; stroke: #6b6358; stroke-width: 0.75; stroke-linecap: round"/>
   </g>
   <g id="text_7">
    <text style="font-size: 9.3px; font-family: 'Univers'; fill: #35302e" transform="translate(298.101793 296.179621)">LoRA/</text>
    <text style="font-size: 9.3px; font-family: 'Univers'; fill: #35302e" transform="translate(298.101793 306.593586)">QLoRA</text>
   </g>
   <g id="patch_43">
    <path d="M 176.227201 161.196175 
Q 180.613525 163.225873 184.999849 165.25557 
" style="fill: none; opacity: 0.45; stroke: #6b6358; stroke-width: 0.75; stroke-linecap: round"/>
   </g>
   <g id="text_8">
    <text style="font-size: 9.3px; font-family: 'Univers'; fill: #35302e" transform="translate(133.701231 145.169302)">Machine</text>
    <text style="font-size: 9.3px; font-family: 'Univers'; fill: #35302e" transform="translate(121.965793 155.583268)">Translation</text>
   </g>
   <g id="patch_44">
    <path d="M 157.084316 260.216703 
Q 164.250206 259.537983 171.416095 258.859262 
" style="fill: none; opacity: 0.45; stroke: #6b6358; stroke-width: 0.75; stroke-linecap: round"/>
   </g>
   <g id="text_9">
    <text style="font-size: 9.3px; font-family: 'Univers'; fill: #35302e" transform="translate(107.195762 260.221792)">Synthetic</text>
    <text style="font-size: 9.3px; font-family: 'Univers'; fill: #35302e" transform="translate(128.898184 270.635757)">Data</text>
   </g>
   <g id="patch_45">
    <path d="M 181.007435 305.000169 
Q 192.322823 300.539856 203.638211 296.079543 
" style="fill: none; opacity: 0.45; stroke: #6b6358; stroke-width: 0.75; stroke-linecap: round"/>
   </g>
   <g id="text_10">
    <text style="font-size: 9.3px; font-family: 'Univers'; text-anchor: end; fill: #35302e" x="190.512445" y="315.533054" transform="rotate(-0 190.512445 315.533054)">Quantization</text>
   </g>
   <g id="patch_46">
    <path d="M 181.252445 210.305348 
Q 187.345811 211.993567 193.439177 213.681786 
" style="fill: none; opacity: 0.45; stroke: #6b6358; stroke-width: 0.75; stroke-linecap: round"/>
   </g>
   <g id="text_11">
    <text style="font-size: 9.3px; font-family: 'Univers'; fill: #35302e" transform="translate(153.190752 200.539047)">Data</text>
    <text style="font-size: 9.3px; font-family: 'Univers'; fill: #35302e" transform="translate(135.671877 210.953013)">Curation</text>
   </g>
   <g id="patch_47">
    <path d="M 295.748086 220.571709 
Q 283.322151 224.884508 270.896217 229.197307 
" style="fill: none; opacity: 0.45; stroke: #6b6358; stroke-width: 0.75; stroke-linecap: round"/>
   </g>
   <g id="text_12">
    <text style="font-size: 9.3px; font-family: 'Univers'; text-anchor: start; fill: #35302e" x="284.58047" y="215.325648" transform="rotate(-0 284.58047 215.325648)">Benchmarking</text>
   </g>
   <g id="patch_48">
    <path d="M 367.709834 225.164378 
Q 360.551484 225.806191 353.393134 226.448004 
" style="fill: none; opacity: 0.45; stroke: #6b6358; stroke-width: 0.75; stroke-linecap: round"/>
   </g>
   <g id="text_13">
    <text style="font-size: 9.3px; font-family: 'Univers'; fill: #35302e" transform="translate(373.696988 219.709079)">Continual</text>
    <text style="font-size: 9.3px; font-family: 'Univers'; fill: #35302e" transform="translate(373.696988 230.123045)">Pretraining</text>
   </g>
   <g id="text_14">
    <text style="font-weight: 700; font-size: 11px; font-family: 'Tomato Grotesk'; fill: #ffffff" transform="translate(240.649062 424.624504)">Agri</text>
    <text style="font-weight: 700; font-size: 11px; font-family: 'Tomato Grotesk'; fill: #ffffff" transform="translate(231.391875 434.938465)">culture</text>
   </g>
   <g id="text_15">
    <text style="font-weight: 700; font-size: 12px; font-family: 'Tomato Grotesk'; text-anchor: middle; fill: #ffffff" x="393.460566" y="361.406596" transform="rotate(-0 393.460566 361.406596)">Climate</text>
   </g>
   <g id="text_16">
    <text style="font-weight: 700; font-size: 12px; font-family: 'Tomato Grotesk'; text-anchor: middle; fill: #ffffff" x="428.04279" y="207.149591" transform="rotate(-0 428.04279 207.149591)">Finance</text>
   </g>
   <g id="text_17">
    <text style="font-weight: 700; font-size: 11px; font-family: 'Tomato Grotesk'; fill: #ffffff" transform="translate(310.670942 78.055129)">Health</text>
    <text style="font-weight: 700; font-size: 11px; font-family: 'Tomato Grotesk'; fill: #ffffff" transform="translate(317.730708 88.283153)">care</text>
   </g>
   <g id="text_18">
    <text style="font-weight: 700; font-size: 12px; font-family: 'Tomato Grotesk'; text-anchor: middle; fill: #ffffff" x="175.734448" y="83.398203" transform="rotate(-0 175.734448 83.398203)">Legal</text>
   </g>
   <g id="text_19">
    <text style="font-weight: 700; font-size: 12px; font-family: 'Tomato Grotesk'; text-anchor: middle; fill: #ffffff" x="78.83721" y="207.149591" transform="rotate(-0 78.83721 207.149591)">Social</text>
   </g>
   <g id="text_20">
    <text style="font-weight: 700; font-size: 12px; font-family: 'Tomato Grotesk'; text-anchor: middle; fill: #ffffff" x="113.419434" y="361.406596" transform="rotate(-0 113.419434 361.406596)">Speech</text>
   </g>
  </g>
 </g>
 <defs>
  <clipPath id="pfc16a7b694">
   <rect x="7.2" y="7.2" width="492.48" height="492.48"/>
  </clipPath>
 </defs>
</svg>
